<mxfile host="app.diagrams.net" modified="2022-09-14T03:15:00.530Z" agent="5.0 (X11; Linux x86_64) AppleWebKit/537.36 (KHTML, like Gecko) Chrome/105.0.0.0 Safari/537.36" etag="Rv5vl3kQXOcGNv61myL8" version="20.3.0" type="github">
  <diagram id="TmrRqqmb7d6Zz8BDZMa6" name="第 1 页">
    <mxGraphModel dx="942" dy="525" grid="1" gridSize="10" guides="1" tooltips="1" connect="1" arrows="1" fold="1" page="1" pageScale="1" pageWidth="827" pageHeight="1169" math="0" shadow="0">
      <root>
        <mxCell id="0" />
        <mxCell id="1" parent="0" />
        <mxCell id="SisAKiqBae2frTQCTx5V-5" style="edgeStyle=orthogonalEdgeStyle;rounded=0;orthogonalLoop=1;jettySize=auto;html=1;" edge="1" parent="1" source="SisAKiqBae2frTQCTx5V-1" target="SisAKiqBae2frTQCTx5V-3">
          <mxGeometry relative="1" as="geometry" />
        </mxCell>
        <mxCell id="SisAKiqBae2frTQCTx5V-1" value="A" style="rounded=0;whiteSpace=wrap;html=1;" vertex="1" parent="1">
          <mxGeometry x="350" y="240" width="120" height="60" as="geometry" />
        </mxCell>
        <mxCell id="SisAKiqBae2frTQCTx5V-2" value="测试图" style="text;html=1;strokeColor=none;fillColor=none;align=center;verticalAlign=middle;whiteSpace=wrap;rounded=0;" vertex="1" parent="1">
          <mxGeometry x="380" y="180" width="60" height="30" as="geometry" />
        </mxCell>
        <mxCell id="SisAKiqBae2frTQCTx5V-3" value="B" style="rounded=0;whiteSpace=wrap;html=1;" vertex="1" parent="1">
          <mxGeometry x="350" y="380" width="120" height="60" as="geometry" />
        </mxCell>
      </root>
    </mxGraphModel>
  </diagram>
</mxfile>
